<mxfile host="app.diagrams.net" agent="Mozilla/5.0 (Windows NT 10.0; Win64; x64) AppleWebKit/537.36 (KHTML, like Gecko) Chrome/139.0.0.0 Safari/537.36" version="28.1.1">
  <diagram name="Page-1" id="pAK-eLzm-Tv9E2ZjTgwW">
    <mxGraphModel dx="2419" dy="1530" grid="1" gridSize="10" guides="1" tooltips="1" connect="1" arrows="1" fold="1" page="1" pageScale="1" pageWidth="850" pageHeight="1100" math="0" shadow="0">
      <root>
        <mxCell id="0" />
        <mxCell id="1" parent="0" />
        <mxCell id="uBvgXewtKfTRaxWfM7u9-22" style="rounded=0;orthogonalLoop=1;jettySize=auto;html=1;exitX=0.75;exitY=0;exitDx=0;exitDy=0;entryX=0.5;entryY=1;entryDx=0;entryDy=0;startArrow=none;startFill=0;endArrow=none;endFill=0;" edge="1" parent="1" source="uBvgXewtKfTRaxWfM7u9-1" target="uBvgXewtKfTRaxWfM7u9-5">
          <mxGeometry relative="1" as="geometry" />
        </mxCell>
        <mxCell id="uBvgXewtKfTRaxWfM7u9-23" style="rounded=0;orthogonalLoop=1;jettySize=auto;html=1;exitX=0.5;exitY=0;exitDx=0;exitDy=0;entryX=0.5;entryY=1;entryDx=0;entryDy=0;endArrow=none;endFill=0;startArrow=none;startFill=0;" edge="1" parent="1" source="uBvgXewtKfTRaxWfM7u9-1" target="uBvgXewtKfTRaxWfM7u9-2">
          <mxGeometry relative="1" as="geometry" />
        </mxCell>
        <mxCell id="uBvgXewtKfTRaxWfM7u9-24" style="rounded=0;orthogonalLoop=1;jettySize=auto;html=1;exitX=0.25;exitY=0;exitDx=0;exitDy=0;entryX=1;entryY=0.5;entryDx=0;entryDy=0;endArrow=none;endFill=0;startArrow=none;startFill=0;" edge="1" parent="1" source="uBvgXewtKfTRaxWfM7u9-1" target="uBvgXewtKfTRaxWfM7u9-9">
          <mxGeometry relative="1" as="geometry" />
        </mxCell>
        <mxCell id="uBvgXewtKfTRaxWfM7u9-25" style="rounded=0;orthogonalLoop=1;jettySize=auto;html=1;exitX=0;exitY=0;exitDx=0;exitDy=0;entryX=1;entryY=0.5;entryDx=0;entryDy=0;endArrow=none;endFill=0;startArrow=none;startFill=0;" edge="1" parent="1" source="uBvgXewtKfTRaxWfM7u9-1" target="uBvgXewtKfTRaxWfM7u9-8">
          <mxGeometry relative="1" as="geometry" />
        </mxCell>
        <mxCell id="uBvgXewtKfTRaxWfM7u9-26" style="rounded=0;orthogonalLoop=1;jettySize=auto;html=1;exitX=0;exitY=0.5;exitDx=0;exitDy=0;entryX=1;entryY=0.5;entryDx=0;entryDy=0;endArrow=none;endFill=0;startArrow=none;startFill=0;" edge="1" parent="1" source="uBvgXewtKfTRaxWfM7u9-1" target="uBvgXewtKfTRaxWfM7u9-4">
          <mxGeometry relative="1" as="geometry" />
        </mxCell>
        <mxCell id="uBvgXewtKfTRaxWfM7u9-27" style="rounded=0;orthogonalLoop=1;jettySize=auto;html=1;exitX=0;exitY=1;exitDx=0;exitDy=0;entryX=1;entryY=0.5;entryDx=0;entryDy=0;endArrow=none;endFill=0;startArrow=none;startFill=0;" edge="1" parent="1" source="uBvgXewtKfTRaxWfM7u9-1" target="uBvgXewtKfTRaxWfM7u9-7">
          <mxGeometry relative="1" as="geometry" />
        </mxCell>
        <mxCell id="uBvgXewtKfTRaxWfM7u9-28" style="rounded=0;orthogonalLoop=1;jettySize=auto;html=1;exitX=0.25;exitY=1;exitDx=0;exitDy=0;entryX=1;entryY=0;entryDx=0;entryDy=0;endArrow=none;endFill=0;startArrow=none;startFill=0;" edge="1" parent="1" source="uBvgXewtKfTRaxWfM7u9-1" target="uBvgXewtKfTRaxWfM7u9-6">
          <mxGeometry relative="1" as="geometry" />
        </mxCell>
        <mxCell id="uBvgXewtKfTRaxWfM7u9-29" style="rounded=0;orthogonalLoop=1;jettySize=auto;html=1;exitX=0.5;exitY=1;exitDx=0;exitDy=0;entryX=0.5;entryY=0;entryDx=0;entryDy=0;endArrow=none;endFill=0;startArrow=none;startFill=0;" edge="1" parent="1" source="uBvgXewtKfTRaxWfM7u9-1" target="uBvgXewtKfTRaxWfM7u9-3">
          <mxGeometry relative="1" as="geometry" />
        </mxCell>
        <mxCell id="uBvgXewtKfTRaxWfM7u9-164" style="rounded=0;orthogonalLoop=1;jettySize=auto;html=1;exitX=1;exitY=0.5;exitDx=0;exitDy=0;entryX=0;entryY=0.5;entryDx=0;entryDy=0;endArrow=none;endFill=0;" edge="1" parent="1" source="uBvgXewtKfTRaxWfM7u9-1" target="uBvgXewtKfTRaxWfM7u9-163">
          <mxGeometry relative="1" as="geometry" />
        </mxCell>
        <mxCell id="uBvgXewtKfTRaxWfM7u9-167" style="rounded=0;orthogonalLoop=1;jettySize=auto;html=1;exitX=1;exitY=1;exitDx=0;exitDy=0;entryX=0;entryY=0.5;entryDx=0;entryDy=0;endArrow=none;endFill=0;" edge="1" parent="1" source="uBvgXewtKfTRaxWfM7u9-1" target="uBvgXewtKfTRaxWfM7u9-166">
          <mxGeometry relative="1" as="geometry" />
        </mxCell>
        <mxCell id="uBvgXewtKfTRaxWfM7u9-169" style="rounded=0;orthogonalLoop=1;jettySize=auto;html=1;exitX=0.75;exitY=1;exitDx=0;exitDy=0;entryX=0.5;entryY=0;entryDx=0;entryDy=0;endArrow=none;endFill=0;" edge="1" parent="1" source="uBvgXewtKfTRaxWfM7u9-1" target="uBvgXewtKfTRaxWfM7u9-170">
          <mxGeometry relative="1" as="geometry">
            <mxPoint x="-400" y="450" as="targetPoint" />
          </mxGeometry>
        </mxCell>
        <mxCell id="uBvgXewtKfTRaxWfM7u9-184" style="rounded=0;orthogonalLoop=1;jettySize=auto;html=1;exitX=1;exitY=0;exitDx=0;exitDy=0;entryX=0.5;entryY=1;entryDx=0;entryDy=0;endArrow=none;endFill=0;" edge="1" parent="1" source="uBvgXewtKfTRaxWfM7u9-1" target="uBvgXewtKfTRaxWfM7u9-182">
          <mxGeometry relative="1" as="geometry" />
        </mxCell>
        <mxCell id="uBvgXewtKfTRaxWfM7u9-185" style="rounded=0;orthogonalLoop=1;jettySize=auto;html=1;exitX=1;exitY=0;exitDx=0;exitDy=0;entryX=0;entryY=0.5;entryDx=0;entryDy=0;endArrow=none;endFill=0;" edge="1" parent="1" source="uBvgXewtKfTRaxWfM7u9-1" target="uBvgXewtKfTRaxWfM7u9-183">
          <mxGeometry relative="1" as="geometry" />
        </mxCell>
        <mxCell id="uBvgXewtKfTRaxWfM7u9-189" style="rounded=0;orthogonalLoop=1;jettySize=auto;html=1;exitX=1;exitY=0;exitDx=0;exitDy=0;entryX=0;entryY=0.5;entryDx=0;entryDy=0;endArrow=none;endFill=0;" edge="1" parent="1" source="uBvgXewtKfTRaxWfM7u9-1" target="uBvgXewtKfTRaxWfM7u9-188">
          <mxGeometry relative="1" as="geometry" />
        </mxCell>
        <mxCell id="uBvgXewtKfTRaxWfM7u9-195" style="rounded=0;orthogonalLoop=1;jettySize=auto;html=1;exitX=0.5;exitY=1;exitDx=0;exitDy=0;entryX=1;entryY=0.5;entryDx=0;entryDy=0;endArrow=none;endFill=0;" edge="1" parent="1" source="uBvgXewtKfTRaxWfM7u9-1" target="uBvgXewtKfTRaxWfM7u9-194">
          <mxGeometry relative="1" as="geometry" />
        </mxCell>
        <mxCell id="uBvgXewtKfTRaxWfM7u9-199" style="rounded=0;orthogonalLoop=1;jettySize=auto;html=1;entryX=1;entryY=0.5;entryDx=0;entryDy=0;endArrow=none;endFill=0;" edge="1" parent="1" source="uBvgXewtKfTRaxWfM7u9-1" target="uBvgXewtKfTRaxWfM7u9-198">
          <mxGeometry relative="1" as="geometry">
            <mxPoint x="-640" y="-210" as="targetPoint" />
          </mxGeometry>
        </mxCell>
        <mxCell id="uBvgXewtKfTRaxWfM7u9-1" value="User&amp;nbsp;" style="rounded=0;whiteSpace=wrap;html=1;" vertex="1" parent="1">
          <mxGeometry x="-480" y="190" width="160" height="60" as="geometry" />
        </mxCell>
        <mxCell id="uBvgXewtKfTRaxWfM7u9-2" value="User_Name&amp;nbsp;" style="ellipse;whiteSpace=wrap;html=1;" vertex="1" parent="1">
          <mxGeometry x="-485" y="-60" width="120" height="80" as="geometry" />
        </mxCell>
        <mxCell id="uBvgXewtKfTRaxWfM7u9-3" value="Created_At&amp;nbsp;" style="ellipse;whiteSpace=wrap;html=1;" vertex="1" parent="1">
          <mxGeometry x="-970" y="360" width="120" height="80" as="geometry" />
        </mxCell>
        <mxCell id="uBvgXewtKfTRaxWfM7u9-4" value="User_Role&amp;nbsp;" style="ellipse;whiteSpace=wrap;html=1;" vertex="1" parent="1">
          <mxGeometry x="-920" y="80" width="120" height="80" as="geometry" />
        </mxCell>
        <mxCell id="uBvgXewtKfTRaxWfM7u9-5" value="&lt;u&gt;User_ID&amp;nbsp;&lt;/u&gt;" style="ellipse;whiteSpace=wrap;html=1;" vertex="1" parent="1">
          <mxGeometry x="-400" y="-150" width="120" height="80" as="geometry" />
        </mxCell>
        <mxCell id="uBvgXewtKfTRaxWfM7u9-6" value="Created_At&amp;nbsp;" style="ellipse;whiteSpace=wrap;html=1;" vertex="1" parent="1">
          <mxGeometry x="-1000" y="260" width="120" height="80" as="geometry" />
        </mxCell>
        <mxCell id="uBvgXewtKfTRaxWfM7u9-7" value="Department_ID&amp;nbsp;" style="ellipse;whiteSpace=wrap;html=1;" vertex="1" parent="1">
          <mxGeometry x="-1000" y="160" width="120" height="80" as="geometry" />
        </mxCell>
        <mxCell id="uBvgXewtKfTRaxWfM7u9-8" value="User_Password&amp;nbsp;" style="ellipse;whiteSpace=wrap;html=1;" vertex="1" parent="1">
          <mxGeometry x="-920" y="-30" width="120" height="80" as="geometry" />
        </mxCell>
        <mxCell id="uBvgXewtKfTRaxWfM7u9-9" value="User_Email&amp;nbsp;" style="ellipse;whiteSpace=wrap;html=1;" vertex="1" parent="1">
          <mxGeometry x="-910" y="-140" width="120" height="80" as="geometry" />
        </mxCell>
        <mxCell id="uBvgXewtKfTRaxWfM7u9-34" style="rounded=0;orthogonalLoop=1;jettySize=auto;html=1;exitX=0.5;exitY=0;exitDx=0;exitDy=0;entryX=0.5;entryY=1;entryDx=0;entryDy=0;endArrow=none;endFill=0;" edge="1" parent="1" source="uBvgXewtKfTRaxWfM7u9-30" target="uBvgXewtKfTRaxWfM7u9-31">
          <mxGeometry relative="1" as="geometry" />
        </mxCell>
        <mxCell id="uBvgXewtKfTRaxWfM7u9-35" style="rounded=0;orthogonalLoop=1;jettySize=auto;html=1;exitX=1;exitY=0;exitDx=0;exitDy=0;entryX=0;entryY=1;entryDx=0;entryDy=0;endArrow=none;endFill=0;" edge="1" parent="1" source="uBvgXewtKfTRaxWfM7u9-30" target="uBvgXewtKfTRaxWfM7u9-33">
          <mxGeometry relative="1" as="geometry" />
        </mxCell>
        <mxCell id="uBvgXewtKfTRaxWfM7u9-36" style="rounded=0;orthogonalLoop=1;jettySize=auto;html=1;exitX=1;exitY=0.5;exitDx=0;exitDy=0;entryX=0;entryY=0.5;entryDx=0;entryDy=0;endArrow=none;endFill=0;" edge="1" parent="1" source="uBvgXewtKfTRaxWfM7u9-30" target="uBvgXewtKfTRaxWfM7u9-32">
          <mxGeometry relative="1" as="geometry" />
        </mxCell>
        <mxCell id="uBvgXewtKfTRaxWfM7u9-30" value="Department&amp;nbsp;" style="rounded=0;whiteSpace=wrap;html=1;" vertex="1" parent="1">
          <mxGeometry y="180" width="120" height="60" as="geometry" />
        </mxCell>
        <mxCell id="uBvgXewtKfTRaxWfM7u9-31" value="&lt;u&gt;Department_ID&amp;nbsp;&lt;/u&gt;" style="ellipse;whiteSpace=wrap;html=1;" vertex="1" parent="1">
          <mxGeometry y="40" width="120" height="80" as="geometry" />
        </mxCell>
        <mxCell id="uBvgXewtKfTRaxWfM7u9-32" value="Location" style="ellipse;whiteSpace=wrap;html=1;" vertex="1" parent="1">
          <mxGeometry x="160" y="210" width="120" height="80" as="geometry" />
        </mxCell>
        <mxCell id="uBvgXewtKfTRaxWfM7u9-33" value="Department_Name" style="ellipse;whiteSpace=wrap;html=1;" vertex="1" parent="1">
          <mxGeometry x="140" y="90" width="120" height="80" as="geometry" />
        </mxCell>
        <mxCell id="uBvgXewtKfTRaxWfM7u9-173" style="rounded=0;orthogonalLoop=1;jettySize=auto;html=1;exitX=0.5;exitY=1;exitDx=0;exitDy=0;entryX=0.5;entryY=0;entryDx=0;entryDy=0;endArrow=none;endFill=0;shape=link;" edge="1" parent="1" source="uBvgXewtKfTRaxWfM7u9-37" target="uBvgXewtKfTRaxWfM7u9-172">
          <mxGeometry relative="1" as="geometry" />
        </mxCell>
        <mxCell id="uBvgXewtKfTRaxWfM7u9-176" style="rounded=0;orthogonalLoop=1;jettySize=auto;html=1;exitX=0.25;exitY=0;exitDx=0;exitDy=0;entryX=0.5;entryY=1;entryDx=0;entryDy=0;endArrow=none;endFill=0;" edge="1" parent="1" source="uBvgXewtKfTRaxWfM7u9-37" target="uBvgXewtKfTRaxWfM7u9-175">
          <mxGeometry relative="1" as="geometry" />
        </mxCell>
        <mxCell id="uBvgXewtKfTRaxWfM7u9-37" value="Course&amp;nbsp;" style="rounded=0;whiteSpace=wrap;html=1;" vertex="1" parent="1">
          <mxGeometry y="530" width="120" height="60" as="geometry" />
        </mxCell>
        <mxCell id="uBvgXewtKfTRaxWfM7u9-46" style="rounded=0;orthogonalLoop=1;jettySize=auto;html=1;exitX=0;exitY=1;exitDx=0;exitDy=0;entryX=0.75;entryY=0;entryDx=0;entryDy=0;endArrow=none;endFill=0;" edge="1" parent="1" source="uBvgXewtKfTRaxWfM7u9-38" target="uBvgXewtKfTRaxWfM7u9-37">
          <mxGeometry relative="1" as="geometry" />
        </mxCell>
        <mxCell id="uBvgXewtKfTRaxWfM7u9-38" value="Course_Name" style="ellipse;whiteSpace=wrap;html=1;" vertex="1" parent="1">
          <mxGeometry x="240" y="290" width="120" height="80" as="geometry" />
        </mxCell>
        <mxCell id="uBvgXewtKfTRaxWfM7u9-47" style="rounded=0;orthogonalLoop=1;jettySize=auto;html=1;exitX=0;exitY=0.5;exitDx=0;exitDy=0;entryX=1;entryY=0;entryDx=0;entryDy=0;endArrow=none;endFill=0;" edge="1" parent="1" source="uBvgXewtKfTRaxWfM7u9-39" target="uBvgXewtKfTRaxWfM7u9-37">
          <mxGeometry relative="1" as="geometry" />
        </mxCell>
        <mxCell id="uBvgXewtKfTRaxWfM7u9-39" value="Description&amp;nbsp;" style="ellipse;whiteSpace=wrap;html=1;" vertex="1" parent="1">
          <mxGeometry x="375" y="320" width="120" height="80" as="geometry" />
        </mxCell>
        <mxCell id="uBvgXewtKfTRaxWfM7u9-48" style="rounded=0;orthogonalLoop=1;jettySize=auto;html=1;exitX=0;exitY=0.5;exitDx=0;exitDy=0;entryX=1;entryY=0.5;entryDx=0;entryDy=0;endArrow=none;endFill=0;" edge="1" parent="1" source="uBvgXewtKfTRaxWfM7u9-40" target="uBvgXewtKfTRaxWfM7u9-37">
          <mxGeometry relative="1" as="geometry" />
        </mxCell>
        <mxCell id="uBvgXewtKfTRaxWfM7u9-40" value="Duration&amp;nbsp;" style="ellipse;whiteSpace=wrap;html=1;" vertex="1" parent="1">
          <mxGeometry x="340" y="530" width="120" height="80" as="geometry" />
        </mxCell>
        <mxCell id="uBvgXewtKfTRaxWfM7u9-49" style="rounded=0;orthogonalLoop=1;jettySize=auto;html=1;exitX=0;exitY=0.5;exitDx=0;exitDy=0;entryX=1;entryY=1;entryDx=0;entryDy=0;endArrow=none;endFill=0;" edge="1" parent="1" source="uBvgXewtKfTRaxWfM7u9-41" target="uBvgXewtKfTRaxWfM7u9-37">
          <mxGeometry relative="1" as="geometry" />
        </mxCell>
        <mxCell id="uBvgXewtKfTRaxWfM7u9-41" value="Department_ID&amp;nbsp;" style="ellipse;whiteSpace=wrap;html=1;" vertex="1" parent="1">
          <mxGeometry x="330" y="630" width="120" height="80" as="geometry" />
        </mxCell>
        <mxCell id="uBvgXewtKfTRaxWfM7u9-50" style="rounded=0;orthogonalLoop=1;jettySize=auto;html=1;exitX=0.5;exitY=0;exitDx=0;exitDy=0;entryX=0.75;entryY=1;entryDx=0;entryDy=0;endArrow=none;endFill=0;" edge="1" parent="1" source="uBvgXewtKfTRaxWfM7u9-42" target="uBvgXewtKfTRaxWfM7u9-37">
          <mxGeometry relative="1" as="geometry" />
        </mxCell>
        <mxCell id="uBvgXewtKfTRaxWfM7u9-42" value="Trainer_ID&amp;nbsp;" style="ellipse;whiteSpace=wrap;html=1;" vertex="1" parent="1">
          <mxGeometry x="110" y="695" width="120" height="80" as="geometry" />
        </mxCell>
        <mxCell id="uBvgXewtKfTRaxWfM7u9-51" style="rounded=0;orthogonalLoop=1;jettySize=auto;html=1;exitX=0.5;exitY=0;exitDx=0;exitDy=0;entryX=0.25;entryY=1;entryDx=0;entryDy=0;endArrow=none;endFill=0;" edge="1" parent="1" source="uBvgXewtKfTRaxWfM7u9-43" target="uBvgXewtKfTRaxWfM7u9-37">
          <mxGeometry relative="1" as="geometry" />
        </mxCell>
        <mxCell id="uBvgXewtKfTRaxWfM7u9-43" value="Category_ID&amp;nbsp;" style="ellipse;whiteSpace=wrap;html=1;" vertex="1" parent="1">
          <mxGeometry x="-110" y="645" width="120" height="80" as="geometry" />
        </mxCell>
        <mxCell id="uBvgXewtKfTRaxWfM7u9-45" style="rounded=0;orthogonalLoop=1;jettySize=auto;html=1;exitX=0.5;exitY=1;exitDx=0;exitDy=0;entryX=0.5;entryY=0;entryDx=0;entryDy=0;endArrow=none;endFill=0;" edge="1" parent="1" source="uBvgXewtKfTRaxWfM7u9-44" target="uBvgXewtKfTRaxWfM7u9-37">
          <mxGeometry relative="1" as="geometry" />
        </mxCell>
        <mxCell id="uBvgXewtKfTRaxWfM7u9-44" value="&lt;u&gt;Course_ID&amp;nbsp;&lt;/u&gt;" style="ellipse;whiteSpace=wrap;html=1;" vertex="1" parent="1">
          <mxGeometry x="100" y="330" width="120" height="80" as="geometry" />
        </mxCell>
        <mxCell id="uBvgXewtKfTRaxWfM7u9-57" style="rounded=0;orthogonalLoop=1;jettySize=auto;html=1;exitX=0;exitY=0.5;exitDx=0;exitDy=0;entryX=1;entryY=0.5;entryDx=0;entryDy=0;endArrow=none;endFill=0;" edge="1" parent="1" source="uBvgXewtKfTRaxWfM7u9-52" target="uBvgXewtKfTRaxWfM7u9-53">
          <mxGeometry relative="1" as="geometry" />
        </mxCell>
        <mxCell id="uBvgXewtKfTRaxWfM7u9-58" style="rounded=0;orthogonalLoop=1;jettySize=auto;html=1;exitX=0.25;exitY=1;exitDx=0;exitDy=0;entryX=1;entryY=0;entryDx=0;entryDy=0;endArrow=none;endFill=0;" edge="1" parent="1" source="uBvgXewtKfTRaxWfM7u9-52" target="uBvgXewtKfTRaxWfM7u9-54">
          <mxGeometry relative="1" as="geometry" />
        </mxCell>
        <mxCell id="uBvgXewtKfTRaxWfM7u9-59" style="rounded=0;orthogonalLoop=1;jettySize=auto;html=1;exitX=0.5;exitY=1;exitDx=0;exitDy=0;entryX=0.5;entryY=0;entryDx=0;entryDy=0;endArrow=none;endFill=0;" edge="1" parent="1" source="uBvgXewtKfTRaxWfM7u9-52" target="uBvgXewtKfTRaxWfM7u9-55">
          <mxGeometry relative="1" as="geometry" />
        </mxCell>
        <mxCell id="uBvgXewtKfTRaxWfM7u9-60" style="rounded=0;orthogonalLoop=1;jettySize=auto;html=1;exitX=1;exitY=1;exitDx=0;exitDy=0;entryX=0;entryY=0.5;entryDx=0;entryDy=0;endArrow=none;endFill=0;" edge="1" parent="1" source="uBvgXewtKfTRaxWfM7u9-52" target="uBvgXewtKfTRaxWfM7u9-56">
          <mxGeometry relative="1" as="geometry" />
        </mxCell>
        <mxCell id="uBvgXewtKfTRaxWfM7u9-52" value="Trainer" style="rounded=0;whiteSpace=wrap;html=1;" vertex="1" parent="1">
          <mxGeometry x="-20" y="1070" width="120" height="60" as="geometry" />
        </mxCell>
        <mxCell id="uBvgXewtKfTRaxWfM7u9-53" value="&lt;u&gt;Trainer_ID&lt;/u&gt;" style="ellipse;whiteSpace=wrap;html=1;" vertex="1" parent="1">
          <mxGeometry x="-170" y="1080" width="120" height="80" as="geometry" />
        </mxCell>
        <mxCell id="uBvgXewtKfTRaxWfM7u9-54" value="Trainer_Name&amp;nbsp;" style="ellipse;whiteSpace=wrap;html=1;" vertex="1" parent="1">
          <mxGeometry x="-120" y="1170" width="120" height="80" as="geometry" />
        </mxCell>
        <mxCell id="uBvgXewtKfTRaxWfM7u9-55" value="Specialization&amp;nbsp;" style="ellipse;whiteSpace=wrap;html=1;" vertex="1" parent="1">
          <mxGeometry x="20" y="1180" width="120" height="80" as="geometry" />
        </mxCell>
        <mxCell id="uBvgXewtKfTRaxWfM7u9-56" value="Manager_ID&amp;nbsp;" style="ellipse;whiteSpace=wrap;html=1;" vertex="1" parent="1">
          <mxGeometry x="140" y="1120" width="120" height="80" as="geometry" />
        </mxCell>
        <mxCell id="uBvgXewtKfTRaxWfM7u9-61" value="Payment&amp;nbsp;" style="rounded=0;whiteSpace=wrap;html=1;" vertex="1" parent="1">
          <mxGeometry x="-440" y="695" width="120" height="60" as="geometry" />
        </mxCell>
        <mxCell id="uBvgXewtKfTRaxWfM7u9-69" style="rounded=0;orthogonalLoop=1;jettySize=auto;html=1;exitX=0;exitY=0.5;exitDx=0;exitDy=0;entryX=1;entryY=1;entryDx=0;entryDy=0;endArrow=none;endFill=0;" edge="1" parent="1" source="uBvgXewtKfTRaxWfM7u9-62" target="uBvgXewtKfTRaxWfM7u9-61">
          <mxGeometry relative="1" as="geometry" />
        </mxCell>
        <mxCell id="uBvgXewtKfTRaxWfM7u9-62" value="Payment_Date&amp;nbsp;" style="ellipse;whiteSpace=wrap;html=1;" vertex="1" parent="1">
          <mxGeometry x="-270" y="745" width="120" height="80" as="geometry" />
        </mxCell>
        <mxCell id="uBvgXewtKfTRaxWfM7u9-68" style="rounded=0;orthogonalLoop=1;jettySize=auto;html=1;exitX=0;exitY=0.5;exitDx=0;exitDy=0;entryX=1;entryY=0.5;entryDx=0;entryDy=0;endArrow=none;endFill=0;" edge="1" parent="1" source="uBvgXewtKfTRaxWfM7u9-63" target="uBvgXewtKfTRaxWfM7u9-61">
          <mxGeometry relative="1" as="geometry" />
        </mxCell>
        <mxCell id="uBvgXewtKfTRaxWfM7u9-63" value="Status&amp;nbsp;" style="ellipse;whiteSpace=wrap;html=1;" vertex="1" parent="1">
          <mxGeometry x="-270" y="645" width="120" height="80" as="geometry" />
        </mxCell>
        <mxCell id="uBvgXewtKfTRaxWfM7u9-70" style="rounded=0;orthogonalLoop=1;jettySize=auto;html=1;exitX=0;exitY=0;exitDx=0;exitDy=0;entryX=0.75;entryY=1;entryDx=0;entryDy=0;endArrow=none;endFill=0;" edge="1" parent="1" source="uBvgXewtKfTRaxWfM7u9-64" target="uBvgXewtKfTRaxWfM7u9-61">
          <mxGeometry relative="1" as="geometry" />
        </mxCell>
        <mxCell id="uBvgXewtKfTRaxWfM7u9-64" value="Amount&amp;nbsp;" style="ellipse;whiteSpace=wrap;html=1;" vertex="1" parent="1">
          <mxGeometry x="-340" y="835" width="120" height="80" as="geometry" />
        </mxCell>
        <mxCell id="uBvgXewtKfTRaxWfM7u9-71" style="rounded=0;orthogonalLoop=1;jettySize=auto;html=1;exitX=0.5;exitY=0;exitDx=0;exitDy=0;entryX=0.5;entryY=1;entryDx=0;entryDy=0;endArrow=none;endFill=0;" edge="1" parent="1" source="uBvgXewtKfTRaxWfM7u9-65" target="uBvgXewtKfTRaxWfM7u9-61">
          <mxGeometry relative="1" as="geometry" />
        </mxCell>
        <mxCell id="uBvgXewtKfTRaxWfM7u9-65" value="Course_ID&amp;nbsp;" style="ellipse;whiteSpace=wrap;html=1;" vertex="1" parent="1">
          <mxGeometry x="-480" y="835" width="120" height="80" as="geometry" />
        </mxCell>
        <mxCell id="uBvgXewtKfTRaxWfM7u9-72" style="rounded=0;orthogonalLoop=1;jettySize=auto;html=1;exitX=1;exitY=0.5;exitDx=0;exitDy=0;entryX=0;entryY=1;entryDx=0;entryDy=0;endArrow=none;endFill=0;" edge="1" parent="1" source="uBvgXewtKfTRaxWfM7u9-66" target="uBvgXewtKfTRaxWfM7u9-61">
          <mxGeometry relative="1" as="geometry" />
        </mxCell>
        <mxCell id="uBvgXewtKfTRaxWfM7u9-66" value="User_ID&amp;nbsp;" style="ellipse;whiteSpace=wrap;html=1;" vertex="1" parent="1">
          <mxGeometry x="-620" y="795" width="120" height="80" as="geometry" />
        </mxCell>
        <mxCell id="uBvgXewtKfTRaxWfM7u9-73" style="rounded=0;orthogonalLoop=1;jettySize=auto;html=1;exitX=1;exitY=0.5;exitDx=0;exitDy=0;entryX=0;entryY=0.5;entryDx=0;entryDy=0;endArrow=none;endFill=0;" edge="1" parent="1" source="uBvgXewtKfTRaxWfM7u9-67" target="uBvgXewtKfTRaxWfM7u9-61">
          <mxGeometry relative="1" as="geometry" />
        </mxCell>
        <mxCell id="uBvgXewtKfTRaxWfM7u9-67" value="&lt;u&gt;Payment_ID&amp;nbsp;&lt;/u&gt;" style="ellipse;whiteSpace=wrap;html=1;" vertex="1" parent="1">
          <mxGeometry x="-610" y="685" width="120" height="80" as="geometry" />
        </mxCell>
        <mxCell id="uBvgXewtKfTRaxWfM7u9-82" style="rounded=0;orthogonalLoop=1;jettySize=auto;html=1;exitX=1;exitY=0;exitDx=0;exitDy=0;entryX=0;entryY=1;entryDx=0;entryDy=0;endArrow=none;endFill=0;" edge="1" parent="1" source="uBvgXewtKfTRaxWfM7u9-74" target="uBvgXewtKfTRaxWfM7u9-77">
          <mxGeometry relative="1" as="geometry" />
        </mxCell>
        <mxCell id="uBvgXewtKfTRaxWfM7u9-83" style="rounded=0;orthogonalLoop=1;jettySize=auto;html=1;exitX=0.5;exitY=0;exitDx=0;exitDy=0;entryX=0.5;entryY=1;entryDx=0;entryDy=0;endArrow=none;endFill=0;" edge="1" parent="1" source="uBvgXewtKfTRaxWfM7u9-74" target="uBvgXewtKfTRaxWfM7u9-75">
          <mxGeometry relative="1" as="geometry" />
        </mxCell>
        <mxCell id="uBvgXewtKfTRaxWfM7u9-84" style="rounded=0;orthogonalLoop=1;jettySize=auto;html=1;exitX=0;exitY=0;exitDx=0;exitDy=0;entryX=1;entryY=1;entryDx=0;entryDy=0;endArrow=none;endFill=0;" edge="1" parent="1" source="uBvgXewtKfTRaxWfM7u9-74" target="uBvgXewtKfTRaxWfM7u9-80">
          <mxGeometry relative="1" as="geometry" />
        </mxCell>
        <mxCell id="uBvgXewtKfTRaxWfM7u9-74" value="Assessment&amp;nbsp;" style="rounded=0;whiteSpace=wrap;html=1;" vertex="1" parent="1">
          <mxGeometry x="-280" y="-340" width="150" height="60" as="geometry" />
        </mxCell>
        <mxCell id="uBvgXewtKfTRaxWfM7u9-75" value="Score&amp;nbsp;" style="ellipse;whiteSpace=wrap;html=1;" vertex="1" parent="1">
          <mxGeometry x="-265" y="-480" width="120" height="80" as="geometry" />
        </mxCell>
        <mxCell id="uBvgXewtKfTRaxWfM7u9-77" value="Date_Taken&amp;nbsp;" style="ellipse;whiteSpace=wrap;html=1;" vertex="1" parent="1">
          <mxGeometry x="-130" y="-470" width="120" height="80" as="geometry" />
        </mxCell>
        <mxCell id="uBvgXewtKfTRaxWfM7u9-86" style="rounded=0;orthogonalLoop=1;jettySize=auto;html=1;exitX=1;exitY=0.5;exitDx=0;exitDy=0;entryX=0;entryY=1;entryDx=0;entryDy=0;endArrow=none;endFill=0;" edge="1" parent="1" source="uBvgXewtKfTRaxWfM7u9-78" target="uBvgXewtKfTRaxWfM7u9-74">
          <mxGeometry relative="1" as="geometry" />
        </mxCell>
        <mxCell id="uBvgXewtKfTRaxWfM7u9-78" value="&lt;u&gt;Assessment_ID&amp;nbsp;&lt;/u&gt;" style="ellipse;whiteSpace=wrap;html=1;" vertex="1" parent="1">
          <mxGeometry x="-430" y="-280" width="120" height="80" as="geometry" />
        </mxCell>
        <mxCell id="uBvgXewtKfTRaxWfM7u9-85" style="rounded=0;orthogonalLoop=1;jettySize=auto;html=1;exitX=1;exitY=0.5;exitDx=0;exitDy=0;entryX=0;entryY=0.5;entryDx=0;entryDy=0;endArrow=none;endFill=0;" edge="1" parent="1" source="uBvgXewtKfTRaxWfM7u9-79" target="uBvgXewtKfTRaxWfM7u9-74">
          <mxGeometry relative="1" as="geometry" />
        </mxCell>
        <mxCell id="uBvgXewtKfTRaxWfM7u9-79" value="User_ID&amp;nbsp;" style="ellipse;whiteSpace=wrap;html=1;" vertex="1" parent="1">
          <mxGeometry x="-430" y="-380" width="120" height="80" as="geometry" />
        </mxCell>
        <mxCell id="uBvgXewtKfTRaxWfM7u9-80" value="Course_ID" style="ellipse;whiteSpace=wrap;html=1;" vertex="1" parent="1">
          <mxGeometry x="-400" y="-470" width="120" height="80" as="geometry" />
        </mxCell>
        <mxCell id="uBvgXewtKfTRaxWfM7u9-100" style="rounded=0;orthogonalLoop=1;jettySize=auto;html=1;exitX=1;exitY=0;exitDx=0;exitDy=0;entryX=0;entryY=1;entryDx=0;entryDy=0;endArrow=none;endFill=0;" edge="1" source="uBvgXewtKfTRaxWfM7u9-103" target="uBvgXewtKfTRaxWfM7u9-105" parent="1">
          <mxGeometry relative="1" as="geometry" />
        </mxCell>
        <mxCell id="uBvgXewtKfTRaxWfM7u9-101" style="rounded=0;orthogonalLoop=1;jettySize=auto;html=1;exitX=0.5;exitY=0;exitDx=0;exitDy=0;entryX=0.5;entryY=1;entryDx=0;entryDy=0;endArrow=none;endFill=0;" edge="1" source="uBvgXewtKfTRaxWfM7u9-103" target="uBvgXewtKfTRaxWfM7u9-104" parent="1">
          <mxGeometry relative="1" as="geometry" />
        </mxCell>
        <mxCell id="uBvgXewtKfTRaxWfM7u9-102" style="rounded=0;orthogonalLoop=1;jettySize=auto;html=1;exitX=0;exitY=0;exitDx=0;exitDy=0;entryX=1;entryY=1;entryDx=0;entryDy=0;endArrow=none;endFill=0;" edge="1" source="uBvgXewtKfTRaxWfM7u9-103" target="uBvgXewtKfTRaxWfM7u9-110" parent="1">
          <mxGeometry relative="1" as="geometry" />
        </mxCell>
        <mxCell id="uBvgXewtKfTRaxWfM7u9-103" value="Pre-Assessment&amp;nbsp;" style="rounded=0;whiteSpace=wrap;html=1;" vertex="1" parent="1">
          <mxGeometry x="240" y="-490" width="150" height="60" as="geometry" />
        </mxCell>
        <mxCell id="uBvgXewtKfTRaxWfM7u9-104" value="Score&amp;nbsp;" style="ellipse;whiteSpace=wrap;html=1;" vertex="1" parent="1">
          <mxGeometry x="255" y="-630" width="120" height="80" as="geometry" />
        </mxCell>
        <mxCell id="uBvgXewtKfTRaxWfM7u9-105" value="Date_Taken&amp;nbsp;" style="ellipse;whiteSpace=wrap;html=1;" vertex="1" parent="1">
          <mxGeometry x="390" y="-620" width="120" height="80" as="geometry" />
        </mxCell>
        <mxCell id="uBvgXewtKfTRaxWfM7u9-106" style="rounded=0;orthogonalLoop=1;jettySize=auto;html=1;exitX=1;exitY=0.5;exitDx=0;exitDy=0;entryX=0;entryY=1;entryDx=0;entryDy=0;endArrow=none;endFill=0;" edge="1" source="uBvgXewtKfTRaxWfM7u9-107" target="uBvgXewtKfTRaxWfM7u9-103" parent="1">
          <mxGeometry relative="1" as="geometry" />
        </mxCell>
        <mxCell id="uBvgXewtKfTRaxWfM7u9-107" value="&lt;u&gt;pre_Assessment_ID&amp;nbsp;&lt;/u&gt;" style="ellipse;whiteSpace=wrap;html=1;" vertex="1" parent="1">
          <mxGeometry x="70" y="-430" width="140" height="90" as="geometry" />
        </mxCell>
        <mxCell id="uBvgXewtKfTRaxWfM7u9-108" style="rounded=0;orthogonalLoop=1;jettySize=auto;html=1;exitX=1;exitY=0.5;exitDx=0;exitDy=0;entryX=0;entryY=0.5;entryDx=0;entryDy=0;endArrow=none;endFill=0;" edge="1" source="uBvgXewtKfTRaxWfM7u9-109" target="uBvgXewtKfTRaxWfM7u9-103" parent="1">
          <mxGeometry relative="1" as="geometry" />
        </mxCell>
        <mxCell id="uBvgXewtKfTRaxWfM7u9-109" value="User_ID&amp;nbsp;" style="ellipse;whiteSpace=wrap;html=1;" vertex="1" parent="1">
          <mxGeometry x="90" y="-530" width="120" height="80" as="geometry" />
        </mxCell>
        <mxCell id="uBvgXewtKfTRaxWfM7u9-110" value="Course_ID" style="ellipse;whiteSpace=wrap;html=1;" vertex="1" parent="1">
          <mxGeometry x="120" y="-620" width="120" height="80" as="geometry" />
        </mxCell>
        <mxCell id="uBvgXewtKfTRaxWfM7u9-111" value="Training_Materials&amp;nbsp;" style="rounded=0;whiteSpace=wrap;html=1;" vertex="1" parent="1">
          <mxGeometry x="590" y="890" width="190" height="60" as="geometry" />
        </mxCell>
        <mxCell id="uBvgXewtKfTRaxWfM7u9-121" style="rounded=0;orthogonalLoop=1;jettySize=auto;html=1;exitX=0;exitY=1;exitDx=0;exitDy=0;entryX=0.75;entryY=0;entryDx=0;entryDy=0;endArrow=none;endFill=0;" edge="1" parent="1" source="uBvgXewtKfTRaxWfM7u9-112" target="uBvgXewtKfTRaxWfM7u9-111">
          <mxGeometry relative="1" as="geometry" />
        </mxCell>
        <mxCell id="uBvgXewtKfTRaxWfM7u9-112" value="Title&amp;nbsp;" style="ellipse;whiteSpace=wrap;html=1;" vertex="1" parent="1">
          <mxGeometry x="790" y="740" width="120" height="80" as="geometry" />
        </mxCell>
        <mxCell id="uBvgXewtKfTRaxWfM7u9-124" style="rounded=0;orthogonalLoop=1;jettySize=auto;html=1;exitX=0;exitY=0;exitDx=0;exitDy=0;entryX=1;entryY=1;entryDx=0;entryDy=0;endArrow=none;endFill=0;" edge="1" parent="1" source="uBvgXewtKfTRaxWfM7u9-113" target="uBvgXewtKfTRaxWfM7u9-111">
          <mxGeometry relative="1" as="geometry" />
        </mxCell>
        <mxCell id="uBvgXewtKfTRaxWfM7u9-113" value="Version&amp;nbsp;" style="ellipse;whiteSpace=wrap;html=1;" vertex="1" parent="1">
          <mxGeometry x="840" y="1070" width="120" height="80" as="geometry" />
        </mxCell>
        <mxCell id="uBvgXewtKfTRaxWfM7u9-125" style="rounded=0;orthogonalLoop=1;jettySize=auto;html=1;exitX=0.5;exitY=0;exitDx=0;exitDy=0;entryX=0.75;entryY=1;entryDx=0;entryDy=0;endArrow=none;endFill=0;" edge="1" parent="1" source="uBvgXewtKfTRaxWfM7u9-114" target="uBvgXewtKfTRaxWfM7u9-111">
          <mxGeometry relative="1" as="geometry" />
        </mxCell>
        <mxCell id="uBvgXewtKfTRaxWfM7u9-114" value="Upload_Date&amp;nbsp;" style="ellipse;whiteSpace=wrap;html=1;" vertex="1" parent="1">
          <mxGeometry x="705" y="1100" width="120" height="80" as="geometry" />
        </mxCell>
        <mxCell id="uBvgXewtKfTRaxWfM7u9-122" style="rounded=0;orthogonalLoop=1;jettySize=auto;html=1;entryX=1;entryY=0;entryDx=0;entryDy=0;endArrow=none;endFill=0;" edge="1" parent="1" source="uBvgXewtKfTRaxWfM7u9-115" target="uBvgXewtKfTRaxWfM7u9-111">
          <mxGeometry relative="1" as="geometry" />
        </mxCell>
        <mxCell id="uBvgXewtKfTRaxWfM7u9-115" value="Type&amp;nbsp;" style="ellipse;whiteSpace=wrap;html=1;" vertex="1" parent="1">
          <mxGeometry x="840" y="840" width="120" height="80" as="geometry" />
        </mxCell>
        <mxCell id="uBvgXewtKfTRaxWfM7u9-123" style="rounded=0;orthogonalLoop=1;jettySize=auto;html=1;exitX=0;exitY=0.5;exitDx=0;exitDy=0;entryX=1;entryY=0.5;entryDx=0;entryDy=0;endArrow=none;endFill=0;" edge="1" parent="1" source="uBvgXewtKfTRaxWfM7u9-116" target="uBvgXewtKfTRaxWfM7u9-111">
          <mxGeometry relative="1" as="geometry" />
        </mxCell>
        <mxCell id="uBvgXewtKfTRaxWfM7u9-116" value="Content_Link&amp;nbsp;" style="ellipse;whiteSpace=wrap;html=1;" vertex="1" parent="1">
          <mxGeometry x="860" y="960" width="120" height="80" as="geometry" />
        </mxCell>
        <mxCell id="uBvgXewtKfTRaxWfM7u9-117" value="&lt;u&gt;Material_ID&amp;nbsp;&lt;/u&gt;" style="ellipse;whiteSpace=wrap;html=1;" vertex="1" parent="1">
          <mxGeometry x="510" y="740" width="120" height="80" as="geometry" />
        </mxCell>
        <mxCell id="uBvgXewtKfTRaxWfM7u9-120" style="rounded=0;orthogonalLoop=1;jettySize=auto;html=1;entryX=0.5;entryY=0;entryDx=0;entryDy=0;endArrow=none;endFill=0;" edge="1" parent="1" source="uBvgXewtKfTRaxWfM7u9-118" target="uBvgXewtKfTRaxWfM7u9-111">
          <mxGeometry relative="1" as="geometry" />
        </mxCell>
        <mxCell id="uBvgXewtKfTRaxWfM7u9-118" value="Course_ID&amp;nbsp;" style="ellipse;whiteSpace=wrap;html=1;" vertex="1" parent="1">
          <mxGeometry x="650" y="740" width="120" height="80" as="geometry" />
        </mxCell>
        <mxCell id="uBvgXewtKfTRaxWfM7u9-119" style="rounded=0;orthogonalLoop=1;jettySize=auto;html=1;entryX=0.25;entryY=0;entryDx=0;entryDy=0;endArrow=none;endFill=0;" edge="1" parent="1" source="uBvgXewtKfTRaxWfM7u9-117" target="uBvgXewtKfTRaxWfM7u9-111">
          <mxGeometry relative="1" as="geometry" />
        </mxCell>
        <mxCell id="uBvgXewtKfTRaxWfM7u9-126" value="Feedback&amp;nbsp;" style="rounded=0;whiteSpace=wrap;html=1;" vertex="1" parent="1">
          <mxGeometry x="450" y="-170" width="120" height="60" as="geometry" />
        </mxCell>
        <mxCell id="uBvgXewtKfTRaxWfM7u9-135" style="rounded=0;orthogonalLoop=1;jettySize=auto;html=1;exitX=0;exitY=1;exitDx=0;exitDy=0;entryX=1;entryY=0;entryDx=0;entryDy=0;endArrow=none;endFill=0;" edge="1" parent="1" source="uBvgXewtKfTRaxWfM7u9-127" target="uBvgXewtKfTRaxWfM7u9-126">
          <mxGeometry relative="1" as="geometry" />
        </mxCell>
        <mxCell id="uBvgXewtKfTRaxWfM7u9-127" value="User_ID&amp;nbsp;" style="ellipse;whiteSpace=wrap;html=1;" vertex="1" parent="1">
          <mxGeometry x="670" y="-390" width="120" height="80" as="geometry" />
        </mxCell>
        <mxCell id="uBvgXewtKfTRaxWfM7u9-136" style="rounded=0;orthogonalLoop=1;jettySize=auto;html=1;exitX=0;exitY=0.5;exitDx=0;exitDy=0;entryX=1;entryY=0.5;entryDx=0;entryDy=0;endArrow=none;endFill=0;" edge="1" parent="1" source="uBvgXewtKfTRaxWfM7u9-128" target="uBvgXewtKfTRaxWfM7u9-126">
          <mxGeometry relative="1" as="geometry" />
        </mxCell>
        <mxCell id="uBvgXewtKfTRaxWfM7u9-128" value="Course_ID" style="ellipse;whiteSpace=wrap;html=1;" vertex="1" parent="1">
          <mxGeometry x="680" y="-290" width="120" height="80" as="geometry" />
        </mxCell>
        <mxCell id="uBvgXewtKfTRaxWfM7u9-137" style="rounded=0;orthogonalLoop=1;jettySize=auto;html=1;exitX=0;exitY=0;exitDx=0;exitDy=0;entryX=1;entryY=1;entryDx=0;entryDy=0;endArrow=none;endFill=0;" edge="1" parent="1" source="uBvgXewtKfTRaxWfM7u9-129" target="uBvgXewtKfTRaxWfM7u9-126">
          <mxGeometry relative="1" as="geometry" />
        </mxCell>
        <mxCell id="uBvgXewtKfTRaxWfM7u9-129" value="Comments&amp;nbsp;" style="ellipse;whiteSpace=wrap;html=1;" vertex="1" parent="1">
          <mxGeometry x="680" y="-190" width="120" height="80" as="geometry" />
        </mxCell>
        <mxCell id="uBvgXewtKfTRaxWfM7u9-134" style="rounded=0;orthogonalLoop=1;jettySize=auto;html=1;entryX=0.5;entryY=0;entryDx=0;entryDy=0;endArrow=none;endFill=0;" edge="1" parent="1" source="uBvgXewtKfTRaxWfM7u9-131" target="uBvgXewtKfTRaxWfM7u9-126">
          <mxGeometry relative="1" as="geometry" />
        </mxCell>
        <mxCell id="uBvgXewtKfTRaxWfM7u9-131" value="&lt;u&gt;Feedback_ID&amp;nbsp;&lt;/u&gt;" style="ellipse;whiteSpace=wrap;html=1;" vertex="1" parent="1">
          <mxGeometry x="660" y="-490" width="120" height="80" as="geometry" />
        </mxCell>
        <mxCell id="uBvgXewtKfTRaxWfM7u9-139" style="rounded=0;orthogonalLoop=1;jettySize=auto;html=1;exitX=1;exitY=0;exitDx=0;exitDy=0;entryX=0.5;entryY=1;entryDx=0;entryDy=0;endArrow=none;endFill=0;" edge="1" parent="1" source="uBvgXewtKfTRaxWfM7u9-132" target="uBvgXewtKfTRaxWfM7u9-126">
          <mxGeometry relative="1" as="geometry" />
        </mxCell>
        <mxCell id="uBvgXewtKfTRaxWfM7u9-132" value="Date_Given&amp;nbsp;" style="ellipse;whiteSpace=wrap;html=1;" vertex="1" parent="1">
          <mxGeometry x="680" y="30" width="120" height="80" as="geometry" />
        </mxCell>
        <mxCell id="uBvgXewtKfTRaxWfM7u9-138" style="rounded=0;orthogonalLoop=1;jettySize=auto;html=1;exitX=0.5;exitY=0;exitDx=0;exitDy=0;entryX=1;entryY=1;entryDx=0;entryDy=0;endArrow=none;endFill=0;" edge="1" parent="1" source="uBvgXewtKfTRaxWfM7u9-133" target="uBvgXewtKfTRaxWfM7u9-126">
          <mxGeometry relative="1" as="geometry" />
        </mxCell>
        <mxCell id="uBvgXewtKfTRaxWfM7u9-133" value="Rating&amp;nbsp;" style="ellipse;whiteSpace=wrap;html=1;" vertex="1" parent="1">
          <mxGeometry x="680" y="-90" width="120" height="80" as="geometry" />
        </mxCell>
        <mxCell id="uBvgXewtKfTRaxWfM7u9-146" style="rounded=0;orthogonalLoop=1;jettySize=auto;html=1;exitX=0.5;exitY=0;exitDx=0;exitDy=0;entryX=0;entryY=0.5;entryDx=0;entryDy=0;endArrow=none;endFill=0;" edge="1" parent="1" source="uBvgXewtKfTRaxWfM7u9-140" target="uBvgXewtKfTRaxWfM7u9-141">
          <mxGeometry relative="1" as="geometry" />
        </mxCell>
        <mxCell id="uBvgXewtKfTRaxWfM7u9-140" value="Attendance&amp;nbsp;" style="rounded=0;whiteSpace=wrap;html=1;" vertex="1" parent="1">
          <mxGeometry x="-1000" y="-580" width="120" height="60" as="geometry" />
        </mxCell>
        <mxCell id="uBvgXewtKfTRaxWfM7u9-141" value="&lt;u&gt;Attendance_ID&amp;nbsp;&lt;/u&gt;" style="ellipse;whiteSpace=wrap;html=1;" vertex="1" parent="1">
          <mxGeometry x="-1080" y="-750" width="120" height="80" as="geometry" />
        </mxCell>
        <mxCell id="uBvgXewtKfTRaxWfM7u9-147" style="rounded=0;orthogonalLoop=1;jettySize=auto;html=1;exitX=0;exitY=0.5;exitDx=0;exitDy=0;endArrow=none;endFill=0;entryX=1;entryY=0;entryDx=0;entryDy=0;" edge="1" parent="1" source="uBvgXewtKfTRaxWfM7u9-142" target="uBvgXewtKfTRaxWfM7u9-140">
          <mxGeometry relative="1" as="geometry">
            <mxPoint x="-880" y="-570" as="targetPoint" />
          </mxGeometry>
        </mxCell>
        <mxCell id="uBvgXewtKfTRaxWfM7u9-142" value="User_ID&amp;nbsp;" style="ellipse;whiteSpace=wrap;html=1;" vertex="1" parent="1">
          <mxGeometry x="-800" y="-700" width="120" height="80" as="geometry" />
        </mxCell>
        <mxCell id="uBvgXewtKfTRaxWfM7u9-148" style="rounded=0;orthogonalLoop=1;jettySize=auto;html=1;exitX=0;exitY=0.5;exitDx=0;exitDy=0;entryX=1;entryY=0.5;entryDx=0;entryDy=0;endArrow=none;endFill=0;" edge="1" parent="1" source="uBvgXewtKfTRaxWfM7u9-143" target="uBvgXewtKfTRaxWfM7u9-140">
          <mxGeometry relative="1" as="geometry" />
        </mxCell>
        <mxCell id="uBvgXewtKfTRaxWfM7u9-143" value="Course_ID&amp;nbsp;" style="ellipse;whiteSpace=wrap;html=1;" vertex="1" parent="1">
          <mxGeometry x="-780" y="-590" width="120" height="80" as="geometry" />
        </mxCell>
        <mxCell id="uBvgXewtKfTRaxWfM7u9-149" style="rounded=0;orthogonalLoop=1;jettySize=auto;html=1;exitX=0.5;exitY=0;exitDx=0;exitDy=0;entryX=0.75;entryY=0;entryDx=0;entryDy=0;endArrow=none;endFill=0;" edge="1" parent="1" source="uBvgXewtKfTRaxWfM7u9-144" target="uBvgXewtKfTRaxWfM7u9-140">
          <mxGeometry relative="1" as="geometry" />
        </mxCell>
        <mxCell id="uBvgXewtKfTRaxWfM7u9-144" value="Date&amp;nbsp;" style="ellipse;whiteSpace=wrap;html=1;" vertex="1" parent="1">
          <mxGeometry x="-940" y="-780" width="120" height="80" as="geometry" />
        </mxCell>
        <mxCell id="uBvgXewtKfTRaxWfM7u9-150" style="rounded=0;orthogonalLoop=1;jettySize=auto;html=1;exitX=0.5;exitY=0;exitDx=0;exitDy=0;entryX=0;entryY=0;entryDx=0;entryDy=0;endArrow=none;endFill=0;" edge="1" parent="1" source="uBvgXewtKfTRaxWfM7u9-145" target="uBvgXewtKfTRaxWfM7u9-140">
          <mxGeometry relative="1" as="geometry" />
        </mxCell>
        <mxCell id="uBvgXewtKfTRaxWfM7u9-145" value="Status&amp;nbsp;" style="ellipse;whiteSpace=wrap;html=1;" vertex="1" parent="1">
          <mxGeometry x="-1190" y="-680" width="120" height="80" as="geometry" />
        </mxCell>
        <mxCell id="uBvgXewtKfTRaxWfM7u9-158" style="rounded=0;orthogonalLoop=1;jettySize=auto;html=1;exitX=0;exitY=0;exitDx=0;exitDy=0;entryX=1;entryY=0.5;entryDx=0;entryDy=0;endArrow=none;endFill=0;" edge="1" parent="1" source="uBvgXewtKfTRaxWfM7u9-151" target="uBvgXewtKfTRaxWfM7u9-152">
          <mxGeometry relative="1" as="geometry" />
        </mxCell>
        <mxCell id="uBvgXewtKfTRaxWfM7u9-159" style="rounded=0;orthogonalLoop=1;jettySize=auto;html=1;exitX=0;exitY=0.5;exitDx=0;exitDy=0;entryX=1;entryY=0.5;entryDx=0;entryDy=0;endArrow=none;endFill=0;" edge="1" parent="1" source="uBvgXewtKfTRaxWfM7u9-151" target="uBvgXewtKfTRaxWfM7u9-153">
          <mxGeometry relative="1" as="geometry" />
        </mxCell>
        <mxCell id="uBvgXewtKfTRaxWfM7u9-160" style="rounded=0;orthogonalLoop=1;jettySize=auto;html=1;exitX=0;exitY=1;exitDx=0;exitDy=0;entryX=1;entryY=0;entryDx=0;entryDy=0;endArrow=none;endFill=0;" edge="1" parent="1" source="uBvgXewtKfTRaxWfM7u9-151" target="uBvgXewtKfTRaxWfM7u9-154">
          <mxGeometry relative="1" as="geometry" />
        </mxCell>
        <mxCell id="uBvgXewtKfTRaxWfM7u9-161" style="rounded=0;orthogonalLoop=1;jettySize=auto;html=1;exitX=0.5;exitY=1;exitDx=0;exitDy=0;entryX=0.5;entryY=0;entryDx=0;entryDy=0;endArrow=none;endFill=0;" edge="1" parent="1" source="uBvgXewtKfTRaxWfM7u9-151" target="uBvgXewtKfTRaxWfM7u9-156">
          <mxGeometry relative="1" as="geometry" />
        </mxCell>
        <mxCell id="uBvgXewtKfTRaxWfM7u9-162" style="rounded=0;orthogonalLoop=1;jettySize=auto;html=1;exitX=1;exitY=1;exitDx=0;exitDy=0;entryX=0.5;entryY=0;entryDx=0;entryDy=0;endArrow=none;endFill=0;" edge="1" parent="1" source="uBvgXewtKfTRaxWfM7u9-151" target="uBvgXewtKfTRaxWfM7u9-155">
          <mxGeometry relative="1" as="geometry" />
        </mxCell>
        <mxCell id="uBvgXewtKfTRaxWfM7u9-151" value="Notification" style="rounded=0;whiteSpace=wrap;html=1;" vertex="1" parent="1">
          <mxGeometry x="-900" y="540" width="120" height="60" as="geometry" />
        </mxCell>
        <mxCell id="uBvgXewtKfTRaxWfM7u9-152" value="&lt;u&gt;Notification_ID&lt;/u&gt;" style="ellipse;whiteSpace=wrap;html=1;" vertex="1" parent="1">
          <mxGeometry x="-1080" y="440" width="120" height="80" as="geometry" />
        </mxCell>
        <mxCell id="uBvgXewtKfTRaxWfM7u9-153" value="User_ID" style="ellipse;whiteSpace=wrap;html=1;" vertex="1" parent="1">
          <mxGeometry x="-1080" y="540" width="120" height="80" as="geometry" />
        </mxCell>
        <mxCell id="uBvgXewtKfTRaxWfM7u9-154" value="Message&amp;nbsp;" style="ellipse;whiteSpace=wrap;html=1;" vertex="1" parent="1">
          <mxGeometry x="-1030" y="640" width="120" height="80" as="geometry" />
        </mxCell>
        <mxCell id="uBvgXewtKfTRaxWfM7u9-155" value="Status" style="ellipse;whiteSpace=wrap;html=1;" vertex="1" parent="1">
          <mxGeometry x="-740" y="680" width="120" height="80" as="geometry" />
        </mxCell>
        <mxCell id="uBvgXewtKfTRaxWfM7u9-156" value="Date_Sent" style="ellipse;whiteSpace=wrap;html=1;" vertex="1" parent="1">
          <mxGeometry x="-890" y="680" width="120" height="80" as="geometry" />
        </mxCell>
        <mxCell id="uBvgXewtKfTRaxWfM7u9-165" style="rounded=0;orthogonalLoop=1;jettySize=auto;html=1;exitX=1;exitY=0.5;exitDx=0;exitDy=0;entryX=0;entryY=0.5;entryDx=0;entryDy=0;endArrow=none;endFill=0;" edge="1" parent="1" source="uBvgXewtKfTRaxWfM7u9-163" target="uBvgXewtKfTRaxWfM7u9-30">
          <mxGeometry relative="1" as="geometry" />
        </mxCell>
        <mxCell id="uBvgXewtKfTRaxWfM7u9-163" value="Belongs&amp;nbsp;&lt;div&gt;To&lt;/div&gt;" style="rhombus;whiteSpace=wrap;html=1;" vertex="1" parent="1">
          <mxGeometry x="-230" y="170" width="130" height="130" as="geometry" />
        </mxCell>
        <mxCell id="uBvgXewtKfTRaxWfM7u9-168" style="rounded=0;orthogonalLoop=1;jettySize=auto;html=1;exitX=1;exitY=0.5;exitDx=0;exitDy=0;entryX=0;entryY=0.5;entryDx=0;entryDy=0;endArrow=none;endFill=0;shape=link;" edge="1" parent="1" source="uBvgXewtKfTRaxWfM7u9-166" target="uBvgXewtKfTRaxWfM7u9-37">
          <mxGeometry relative="1" as="geometry" />
        </mxCell>
        <mxCell id="uBvgXewtKfTRaxWfM7u9-166" value="Registers_&lt;div&gt;For&lt;/div&gt;" style="rhombus;whiteSpace=wrap;html=1;" vertex="1" parent="1">
          <mxGeometry x="-230" y="410" width="110" height="110" as="geometry" />
        </mxCell>
        <mxCell id="uBvgXewtKfTRaxWfM7u9-170" value="Makes" style="rhombus;whiteSpace=wrap;html=1;" vertex="1" parent="1">
          <mxGeometry x="-470" y="470" width="110" height="110" as="geometry" />
        </mxCell>
        <mxCell id="uBvgXewtKfTRaxWfM7u9-174" style="rounded=0;orthogonalLoop=1;jettySize=auto;html=1;exitX=0.5;exitY=1;exitDx=0;exitDy=0;entryX=0.5;entryY=0;entryDx=0;entryDy=0;endArrow=none;endFill=0;" edge="1" parent="1" source="uBvgXewtKfTRaxWfM7u9-172" target="uBvgXewtKfTRaxWfM7u9-52">
          <mxGeometry relative="1" as="geometry" />
        </mxCell>
        <mxCell id="uBvgXewtKfTRaxWfM7u9-172" value="Conducted&lt;div&gt;By&lt;/div&gt;" style="rhombus;whiteSpace=wrap;html=1;" vertex="1" parent="1">
          <mxGeometry y="780" width="110" height="110" as="geometry" />
        </mxCell>
        <mxCell id="uBvgXewtKfTRaxWfM7u9-177" style="rounded=0;orthogonalLoop=1;jettySize=auto;html=1;exitX=0.5;exitY=0;exitDx=0;exitDy=0;entryX=0.5;entryY=1;entryDx=0;entryDy=0;endArrow=none;endFill=0;" edge="1" parent="1" source="uBvgXewtKfTRaxWfM7u9-175" target="uBvgXewtKfTRaxWfM7u9-30">
          <mxGeometry relative="1" as="geometry" />
        </mxCell>
        <mxCell id="uBvgXewtKfTRaxWfM7u9-175" value="Offered&lt;div&gt;By&lt;/div&gt;" style="rhombus;whiteSpace=wrap;html=1;" vertex="1" parent="1">
          <mxGeometry x="-40" y="320" width="120" height="120" as="geometry" />
        </mxCell>
        <mxCell id="uBvgXewtKfTRaxWfM7u9-179" style="rounded=0;orthogonalLoop=1;jettySize=auto;html=1;exitX=0.5;exitY=0;exitDx=0;exitDy=0;entryX=1;entryY=1;entryDx=0;entryDy=0;endArrow=none;endFill=0;" edge="1" parent="1" source="uBvgXewtKfTRaxWfM7u9-178" target="uBvgXewtKfTRaxWfM7u9-37">
          <mxGeometry relative="1" as="geometry" />
        </mxCell>
        <mxCell id="uBvgXewtKfTRaxWfM7u9-180" style="rounded=0;orthogonalLoop=1;jettySize=auto;html=1;exitX=0.5;exitY=1;exitDx=0;exitDy=0;entryX=0;entryY=0.5;entryDx=0;entryDy=0;endArrow=none;endFill=0;" edge="1" parent="1" source="uBvgXewtKfTRaxWfM7u9-178" target="uBvgXewtKfTRaxWfM7u9-111">
          <mxGeometry relative="1" as="geometry" />
        </mxCell>
        <mxCell id="uBvgXewtKfTRaxWfM7u9-178" value="Contains" style="rhombus;whiteSpace=wrap;html=1;" vertex="1" parent="1">
          <mxGeometry x="265" y="745" width="160" height="160" as="geometry" />
        </mxCell>
        <mxCell id="uBvgXewtKfTRaxWfM7u9-186" style="rounded=0;orthogonalLoop=1;jettySize=auto;html=1;exitX=0.5;exitY=0;exitDx=0;exitDy=0;entryX=0.5;entryY=1;entryDx=0;entryDy=0;endArrow=none;endFill=0;" edge="1" parent="1" source="uBvgXewtKfTRaxWfM7u9-182" target="uBvgXewtKfTRaxWfM7u9-74">
          <mxGeometry relative="1" as="geometry" />
        </mxCell>
        <mxCell id="uBvgXewtKfTRaxWfM7u9-182" value="Takes" style="rhombus;whiteSpace=wrap;html=1;" vertex="1" parent="1">
          <mxGeometry x="-230" y="-150" width="80" height="80" as="geometry" />
        </mxCell>
        <mxCell id="uBvgXewtKfTRaxWfM7u9-187" style="rounded=0;orthogonalLoop=1;jettySize=auto;html=1;entryX=0.5;entryY=1;entryDx=0;entryDy=0;exitX=1;exitY=0.5;exitDx=0;exitDy=0;endArrow=none;endFill=0;" edge="1" parent="1" source="uBvgXewtKfTRaxWfM7u9-183" target="uBvgXewtKfTRaxWfM7u9-103">
          <mxGeometry relative="1" as="geometry" />
        </mxCell>
        <mxCell id="uBvgXewtKfTRaxWfM7u9-183" value="Attempts" style="rhombus;whiteSpace=wrap;html=1;" vertex="1" parent="1">
          <mxGeometry x="80" y="-240" width="80" height="80" as="geometry" />
        </mxCell>
        <mxCell id="uBvgXewtKfTRaxWfM7u9-190" style="rounded=0;orthogonalLoop=1;jettySize=auto;html=1;exitX=1;exitY=0.5;exitDx=0;exitDy=0;entryX=0;entryY=0.5;entryDx=0;entryDy=0;endArrow=none;endFill=0;" edge="1" parent="1" source="uBvgXewtKfTRaxWfM7u9-188" target="uBvgXewtKfTRaxWfM7u9-126">
          <mxGeometry relative="1" as="geometry" />
        </mxCell>
        <mxCell id="uBvgXewtKfTRaxWfM7u9-188" value="Gives" style="rhombus;whiteSpace=wrap;html=1;" vertex="1" parent="1">
          <mxGeometry x="200" y="-120" width="80" height="80" as="geometry" />
        </mxCell>
        <mxCell id="uBvgXewtKfTRaxWfM7u9-193" style="rounded=0;orthogonalLoop=1;jettySize=auto;html=1;exitX=0.5;exitY=0;exitDx=0;exitDy=0;entryX=0.25;entryY=1;entryDx=0;entryDy=0;endArrow=none;endFill=0;shape=link;" edge="1" parent="1" source="uBvgXewtKfTRaxWfM7u9-191" target="uBvgXewtKfTRaxWfM7u9-126">
          <mxGeometry relative="1" as="geometry" />
        </mxCell>
        <mxCell id="uBvgXewtKfTRaxWfM7u9-191" value="Receives" style="rhombus;whiteSpace=wrap;html=1;" vertex="1" parent="1">
          <mxGeometry x="550" y="360" width="178.75" height="130" as="geometry" />
        </mxCell>
        <mxCell id="uBvgXewtKfTRaxWfM7u9-192" style="rounded=0;orthogonalLoop=1;jettySize=auto;html=1;exitX=1;exitY=0;exitDx=0;exitDy=0;entryX=0;entryY=0.5;entryDx=0;entryDy=0;endArrow=none;endFill=0;" edge="1" parent="1" source="uBvgXewtKfTRaxWfM7u9-37" target="uBvgXewtKfTRaxWfM7u9-191">
          <mxGeometry relative="1" as="geometry" />
        </mxCell>
        <mxCell id="uBvgXewtKfTRaxWfM7u9-196" style="rounded=0;orthogonalLoop=1;jettySize=auto;html=1;exitX=0;exitY=0.5;exitDx=0;exitDy=0;entryX=1;entryY=0;entryDx=0;entryDy=0;endArrow=none;endFill=0;" edge="1" parent="1" source="uBvgXewtKfTRaxWfM7u9-194" target="uBvgXewtKfTRaxWfM7u9-151">
          <mxGeometry relative="1" as="geometry" />
        </mxCell>
        <mxCell id="uBvgXewtKfTRaxWfM7u9-194" value="Receives" style="rhombus;whiteSpace=wrap;html=1;" vertex="1" parent="1">
          <mxGeometry x="-710" y="390" width="150" height="140" as="geometry" />
        </mxCell>
        <mxCell id="uBvgXewtKfTRaxWfM7u9-200" style="rounded=0;orthogonalLoop=1;jettySize=auto;html=1;exitX=0;exitY=0.5;exitDx=0;exitDy=0;entryX=0.5;entryY=1;entryDx=0;entryDy=0;endArrow=none;endFill=0;" edge="1" parent="1" source="uBvgXewtKfTRaxWfM7u9-198" target="uBvgXewtKfTRaxWfM7u9-140">
          <mxGeometry relative="1" as="geometry" />
        </mxCell>
        <mxCell id="uBvgXewtKfTRaxWfM7u9-198" value="Marks" style="rhombus;whiteSpace=wrap;html=1;" vertex="1" parent="1">
          <mxGeometry x="-770" y="-320" width="120" height="120" as="geometry" />
        </mxCell>
        <mxCell id="uBvgXewtKfTRaxWfM7u9-201" value="m" style="text;html=1;align=center;verticalAlign=middle;resizable=0;points=[];autosize=1;strokeColor=none;fillColor=none;" vertex="1" parent="1">
          <mxGeometry x="-285" y="228" width="30" height="30" as="geometry" />
        </mxCell>
        <mxCell id="uBvgXewtKfTRaxWfM7u9-202" value="1" style="text;html=1;align=center;verticalAlign=middle;resizable=0;points=[];autosize=1;strokeColor=none;fillColor=none;" vertex="1" parent="1">
          <mxGeometry x="-65" y="230" width="30" height="30" as="geometry" />
        </mxCell>
        <mxCell id="uBvgXewtKfTRaxWfM7u9-203" value="m" style="text;html=1;align=center;verticalAlign=middle;resizable=0;points=[];autosize=1;strokeColor=none;fillColor=none;" vertex="1" parent="1">
          <mxGeometry x="-265" y="340" width="30" height="30" as="geometry" />
        </mxCell>
        <mxCell id="uBvgXewtKfTRaxWfM7u9-204" value="n" style="text;html=1;align=center;verticalAlign=middle;resizable=0;points=[];autosize=1;strokeColor=none;fillColor=none;" vertex="1" parent="1">
          <mxGeometry x="-105" y="510" width="30" height="30" as="geometry" />
        </mxCell>
        <mxCell id="uBvgXewtKfTRaxWfM7u9-205" value="m" style="text;html=1;align=center;verticalAlign=middle;resizable=0;points=[];autosize=1;strokeColor=none;fillColor=none;" vertex="1" parent="1">
          <mxGeometry x="20" y="725" width="30" height="30" as="geometry" />
        </mxCell>
        <mxCell id="uBvgXewtKfTRaxWfM7u9-207" value="1" style="text;html=1;align=center;verticalAlign=middle;resizable=0;points=[];autosize=1;strokeColor=none;fillColor=none;" vertex="1" parent="1">
          <mxGeometry x="55" y="978" width="30" height="30" as="geometry" />
        </mxCell>
        <mxCell id="uBvgXewtKfTRaxWfM7u9-208" value="1" style="text;html=1;align=center;verticalAlign=middle;resizable=0;points=[];autosize=1;strokeColor=none;fillColor=none;" vertex="1" parent="1">
          <mxGeometry x="265" y="720" width="30" height="30" as="geometry" />
        </mxCell>
        <mxCell id="uBvgXewtKfTRaxWfM7u9-210" value="m" style="text;html=1;align=center;verticalAlign=middle;resizable=0;points=[];autosize=1;strokeColor=none;fillColor=none;" vertex="1" parent="1">
          <mxGeometry x="480" y="930" width="30" height="30" as="geometry" />
        </mxCell>
        <mxCell id="uBvgXewtKfTRaxWfM7u9-211" value="1" style="text;html=1;align=center;verticalAlign=middle;resizable=0;points=[];autosize=1;strokeColor=none;fillColor=none;" vertex="1" parent="1">
          <mxGeometry x="-385" y="388" width="30" height="30" as="geometry" />
        </mxCell>
        <mxCell id="uBvgXewtKfTRaxWfM7u9-212" value="m" style="text;html=1;align=center;verticalAlign=middle;resizable=0;points=[];autosize=1;strokeColor=none;fillColor=none;" vertex="1" parent="1">
          <mxGeometry x="-385" y="608" width="30" height="30" as="geometry" />
        </mxCell>
        <mxCell id="uBvgXewtKfTRaxWfM7u9-213" value="1" style="text;html=1;align=center;verticalAlign=middle;resizable=0;points=[];autosize=1;strokeColor=none;fillColor=none;" vertex="1" parent="1">
          <mxGeometry x="-295" y="-12" width="30" height="30" as="geometry" />
        </mxCell>
        <mxCell id="uBvgXewtKfTRaxWfM7u9-214" value="1" style="text;html=1;align=center;verticalAlign=middle;resizable=0;points=[];autosize=1;strokeColor=none;fillColor=none;" vertex="1" parent="1">
          <mxGeometry x="-95" y="-112" width="30" height="30" as="geometry" />
        </mxCell>
        <mxCell id="uBvgXewtKfTRaxWfM7u9-215" value="m" style="text;html=1;align=center;verticalAlign=middle;resizable=0;points=[];autosize=1;strokeColor=none;fillColor=none;" vertex="1" parent="1">
          <mxGeometry x="-195" y="-242" width="30" height="30" as="geometry" />
        </mxCell>
        <mxCell id="uBvgXewtKfTRaxWfM7u9-216" value="m" style="text;html=1;align=center;verticalAlign=middle;resizable=0;points=[];autosize=1;strokeColor=none;fillColor=none;" vertex="1" parent="1">
          <mxGeometry x="225" y="-290" width="30" height="30" as="geometry" />
        </mxCell>
        <mxCell id="uBvgXewtKfTRaxWfM7u9-218" value="1" style="text;html=1;align=center;verticalAlign=middle;resizable=0;points=[];autosize=1;strokeColor=none;fillColor=none;" vertex="1" parent="1">
          <mxGeometry x="55" y="-72" width="30" height="30" as="geometry" />
        </mxCell>
        <mxCell id="uBvgXewtKfTRaxWfM7u9-219" value="1" style="text;html=1;align=center;verticalAlign=middle;resizable=0;points=[];autosize=1;strokeColor=none;fillColor=none;" vertex="1" parent="1">
          <mxGeometry x="355" y="-82" width="30" height="30" as="geometry" />
        </mxCell>
        <mxCell id="uBvgXewtKfTRaxWfM7u9-220" value="1" style="text;html=1;align=center;verticalAlign=middle;resizable=0;points=[];autosize=1;strokeColor=none;fillColor=none;" vertex="1" parent="1">
          <mxGeometry x="-590" y="-70" width="30" height="30" as="geometry" />
        </mxCell>
        <mxCell id="uBvgXewtKfTRaxWfM7u9-221" value="m" style="text;html=1;align=center;verticalAlign=middle;resizable=0;points=[];autosize=1;strokeColor=none;fillColor=none;" vertex="1" parent="1">
          <mxGeometry x="-835" y="-432" width="30" height="30" as="geometry" />
        </mxCell>
        <mxCell id="uBvgXewtKfTRaxWfM7u9-222" value="1" style="text;html=1;align=center;verticalAlign=middle;resizable=0;points=[];autosize=1;strokeColor=none;fillColor=none;" vertex="1" parent="1">
          <mxGeometry x="-545" y="338" width="30" height="30" as="geometry" />
        </mxCell>
        <mxCell id="uBvgXewtKfTRaxWfM7u9-223" value="m" style="text;html=1;align=center;verticalAlign=middle;resizable=0;points=[];autosize=1;strokeColor=none;fillColor=none;" vertex="1" parent="1">
          <mxGeometry x="-790" y="465" width="30" height="30" as="geometry" />
        </mxCell>
        <mxCell id="uBvgXewtKfTRaxWfM7u9-224" value="Attendance&amp;nbsp;" style="rounded=0;whiteSpace=wrap;html=1;" vertex="1" parent="1">
          <mxGeometry x="-995" y="-575" width="110" height="50" as="geometry" />
        </mxCell>
        <mxCell id="uBvgXewtKfTRaxWfM7u9-225" value="Marks" style="rhombus;whiteSpace=wrap;html=1;" vertex="1" parent="1">
          <mxGeometry x="-762.5" y="-312.5" width="105" height="105" as="geometry" />
        </mxCell>
        <mxCell id="uBvgXewtKfTRaxWfM7u9-232" value="" style="shape=link;endArrow=none;startArrow=none;html=1;rounded=0;entryX=0.5;entryY=1;entryDx=0;entryDy=0;exitX=0.5;exitY=0;exitDx=0;exitDy=0;startFill=0;endFill=0;" edge="1" parent="1" source="uBvgXewtKfTRaxWfM7u9-61" target="uBvgXewtKfTRaxWfM7u9-170">
          <mxGeometry width="100" height="100" relative="1" as="geometry">
            <mxPoint x="-550" y="690" as="sourcePoint" />
            <mxPoint x="-450" y="590" as="targetPoint" />
          </mxGeometry>
        </mxCell>
      </root>
    </mxGraphModel>
  </diagram>
</mxfile>
